<svg width="93" height="36" viewBox="0 0 93 36" fill="none" xmlns="http://www.w3.org/2000/svg">
<path d="M74.5935 0.5H76.3765C80.2805 0.678356 84.0843 2.26918 87.0505 4.8611C89.3975 6.90164 91.1823 9.60671 92.1735 12.5899C92.6579 14.0512 92.9127 15.5845 93.0008 17.1236V18.8764C92.864 21.8912 91.9112 24.8504 90.2875 27.3675C87.2726 32.1419 81.9182 35.2488 76.3746 35.5H74.5917C71.8644 35.3562 69.182 34.5459 66.8098 33.1612C63.7967 31.4352 61.2924 28.7829 59.7503 25.6175C57.8193 21.8318 57.4802 17.2722 58.6419 13.1882C59.6341 9.85507 61.6128 6.83548 64.2492 4.63096C67.1592 2.18863 70.8272 0.688904 74.5935 0.5ZM74.4118 8.91534C71.321 9.27493 68.4709 11.4066 67.2689 14.3552C66.4894 16.1848 66.3385 18.2771 66.7976 20.2132C67.2276 22.0034 68.1936 23.6633 69.5615 24.8677C70.8563 26.0136 72.464 26.8037 74.1626 27.0501C75.5126 27.2496 76.9077 27.1489 78.2128 26.7385C79.9357 26.1785 81.5004 25.0892 82.5984 23.6144C83.9176 21.851 84.5902 19.5918 84.4263 17.3758C84.3232 15.5519 83.6477 13.777 82.5591 12.3348C81.5022 10.9358 80.0238 9.89151 78.3927 9.32096C77.1166 8.88562 75.7459 8.75712 74.4118 8.91534Z" fill="white"/>
<path d="M0 1.08632C2.40314 1.08632 4.80629 1.08536 7.2085 1.08727C12.1057 7.35755 17.0075 13.624 21.8981 19.8991C21.9028 13.6288 21.8972 7.35851 21.9009 1.08823C34.4076 1.08536 46.9143 1.08536 59.4219 1.08727C59.4237 3.88344 59.4237 6.6796 59.4219 9.47577C55.9919 9.48919 52.56 9.45467 49.1319 9.49303C49.1497 17.9256 49.1413 26.3592 49.1356 34.7928C46.3109 34.7899 43.4871 34.7937 40.6623 34.7908C40.6595 26.3534 40.6633 17.9151 40.6605 9.47673C37.2174 9.47768 33.7752 9.47577 30.333 9.47768C30.3312 17.9151 30.3321 26.3525 30.3321 34.7908C27.9393 34.7937 25.5455 34.7908 23.1517 34.7918C18.2602 28.5464 13.3752 22.2954 8.47893 16.0529C8.47799 22.2992 8.48174 28.5445 8.47706 34.7908C5.65137 34.7937 2.82569 34.7908 0 34.7918V1.08632Z" fill="white"/>
</svg>
