<svg width="223" height="33" viewBox="0 0 223 33" fill="none" xmlns="http://www.w3.org/2000/svg">
<path d="M3.48 32.484C2.904 32.484 2.584 32.164 2.52 31.524C2.41333 30.4147 2.008 27.8333 1.304 23.78C0.621333 19.748 0.28 17.2947 0.28 16.42C0.28 14.7987 1.03733 13.4867 2.552 12.484C4.06667 11.4813 5.76267 10.98 7.64 10.98C9.048 10.98 10.2 11.3853 11.096 12.196C11.992 13.0067 12.44 14.0947 12.44 15.46C12.44 16.2707 12.2053 17.0173 11.736 17.7C11.288 18.3827 10.744 18.916 10.104 19.3C8.73867 20.1533 7.59733 20.58 6.68 20.58C6.04 20.58 5.72 20.26 5.72 19.62C5.72 19.044 6.04 18.7347 6.68 18.692C7.34133 18.628 8.14133 18.2867 9.08 17.668C10.04 17.0493 10.52 16.324 10.52 15.492C10.52 14.6387 10.264 13.9987 9.752 13.572C9.24 13.124 8.42933 12.9 7.32 12.9C6.232 12.9 5.10133 13.22 3.928 13.86C2.776 14.5 2.2 15.3107 2.2 16.292C2.2 17.2733 2.648 20.3667 3.544 25.572L3.896 23.46C4.00267 22.82 4.32267 22.5 4.856 22.5C5.496 22.5 5.816 22.82 5.816 23.46C5.816 23.5667 5.80533 23.684 5.784 23.812L4.536 31.524C4.51467 31.716 4.41867 31.9187 4.248 32.132C4.07733 32.3667 3.82133 32.484 3.48 32.484ZM28.775 19.876C28.775 19.876 29.1163 19.7907 29.799 19.62C30.439 19.62 30.759 19.94 30.759 20.58C30.759 21.0493 30.439 21.3907 29.799 21.604C29.415 21.732 29.031 21.796 28.647 21.796C28.2843 21.796 27.9323 21.7107 27.591 21.54C27.2497 21.3693 26.983 21.1133 26.791 20.772C26.471 20.2173 26.2363 19.62 26.087 18.98L25.959 18.436C25.5963 19.0547 24.711 19.78 23.303 20.612C21.9163 21.444 20.4337 21.86 18.855 21.86C18.0017 21.86 17.255 21.54 16.615 20.9C15.975 20.26 15.655 19.5133 15.655 18.66C15.655 16.5907 16.5083 14.7987 18.215 13.284C19.9217 11.748 21.6497 10.98 23.399 10.98C24.359 10.98 25.1803 11.1613 25.863 11.524C26.567 11.8653 26.919 12.2173 26.919 12.58C26.919 13.22 26.599 13.54 25.959 13.54C25.831 13.54 25.5217 13.4333 25.031 13.22C24.5403 13.0067 23.9963 12.9 23.399 12.9C22.247 12.9 20.9883 13.4653 19.623 14.596C18.2577 15.7053 17.575 17.06 17.575 18.66C17.575 18.98 17.703 19.2787 17.959 19.556C18.2363 19.812 18.535 19.94 18.855 19.94C20.1137 19.94 21.287 19.6093 22.375 18.948C23.463 18.2653 24.1563 17.7107 24.455 17.284C24.7537 16.836 24.999 16.4307 25.191 16.068C25.383 15.7053 25.5217 15.4707 25.607 15.364C25.7137 15.236 25.927 15.172 26.247 15.172C26.567 15.172 26.8123 15.2893 26.983 15.524C27.1537 15.7587 27.3137 16.132 27.463 16.644C27.6123 17.1347 27.7617 17.6893 27.911 18.308C28.0603 18.9267 28.1883 19.3427 28.295 19.556C28.423 19.7693 28.583 19.876 28.775 19.876ZM33.59 15.14L33.91 16.42C33.91 17.06 33.59 17.38 32.95 17.38C32.6727 17.38 32.3847 17.156 32.086 16.708C31.8087 16.26 31.67 15.7373 31.67 15.14C31.67 14.5427 31.8193 14.0733 32.118 13.732C32.438 13.3907 32.982 13.0067 33.75 12.58C34.518 12.132 35.6487 11.7587 37.142 11.46C38.6567 11.14 39.8193 10.98 40.63 10.98C41.462 10.98 42.1447 11.3427 42.678 12.068C43.2327 12.772 43.51 13.7 43.51 14.852C43.51 15.9827 43.83 17.22 44.47 18.564C45.1313 19.908 45.8567 20.58 46.646 20.58C47.4353 20.58 48.0647 20.0253 48.534 18.916C49.0247 17.7853 49.27 16.7933 49.27 15.94C49.27 15.0653 49.7073 14.2333 50.582 13.444C51.4567 12.6547 52.566 12.26 53.91 12.26C55.254 12.26 56.47 12.5267 57.558 13.06C58.646 13.5933 59.19 14.436 59.19 15.588C59.19 16.74 59.4673 17.8067 60.022 18.788C60.5767 19.7693 61.174 20.26 61.814 20.26C62.1767 20.26 62.678 20.1533 63.318 19.94C63.958 19.7267 64.31 19.62 64.374 19.62C65.014 19.62 65.334 19.94 65.334 20.58C65.334 21.0493 65.014 21.3907 64.374 21.604C63.222 21.988 62.3687 22.18 61.814 22.18C60.47 22.18 59.3713 21.476 58.518 20.068C57.686 18.6387 57.27 17.1027 57.27 15.46C57.27 15.0973 56.8647 14.7987 56.054 14.564C55.2647 14.308 54.518 14.18 53.814 14.18C53.1313 14.18 52.5233 14.3827 51.99 14.788C51.4567 15.1933 51.19 15.62 51.19 16.068C51.19 16.4947 51.1153 17.028 50.966 17.668C50.8167 18.308 50.582 19.012 50.262 19.78C49.9633 20.5267 49.494 21.1667 48.854 21.7C48.2353 22.2333 47.5207 22.5 46.71 22.5C45.3233 22.5 44.118 21.668 43.094 20.004C42.0913 18.34 41.59 16.5053 41.59 14.5C41.59 14.116 41.5047 13.7533 41.334 13.412C41.1847 13.0707 40.9607 12.9 40.662 12.9C39.6593 12.9 38.55 13.06 37.334 13.38C36.118 13.7 35.19 14.02 34.55 14.34C33.91 14.66 33.59 14.9267 33.59 15.14ZM78.7125 19.876C78.7125 19.876 79.0538 19.7907 79.7365 19.62C80.3765 19.62 80.6965 19.94 80.6965 20.58C80.6965 21.0493 80.3765 21.3907 79.7365 21.604C79.3525 21.732 78.9685 21.796 78.5845 21.796C78.2218 21.796 77.8698 21.7107 77.5285 21.54C77.1872 21.3693 76.9205 21.1133 76.7285 20.772C76.4085 20.2173 76.1738 19.62 76.0245 18.98L75.8965 18.436C75.5338 19.0547 74.6485 19.78 73.2405 20.612C71.8538 21.444 70.3712 21.86 68.7925 21.86C67.9392 21.86 67.1925 21.54 66.5525 20.9C65.9125 20.26 65.5925 19.5133 65.5925 18.66C65.5925 16.5907 66.4458 14.7987 68.1525 13.284C69.8592 11.748 71.5872 10.98 73.3365 10.98C74.2965 10.98 75.1178 11.1613 75.8005 11.524C76.5045 11.8653 76.8565 12.2173 76.8565 12.58C76.8565 13.22 76.5365 13.54 75.8965 13.54C75.7685 13.54 75.4592 13.4333 74.9685 13.22C74.4778 13.0067 73.9338 12.9 73.3365 12.9C72.1845 12.9 70.9258 13.4653 69.5605 14.596C68.1952 15.7053 67.5125 17.06 67.5125 18.66C67.5125 18.98 67.6405 19.2787 67.8965 19.556C68.1738 19.812 68.4725 19.94 68.7925 19.94C70.0512 19.94 71.2245 19.6093 72.3125 18.948C73.4005 18.2653 74.0938 17.7107 74.3925 17.284C74.6912 16.836 74.9365 16.4307 75.1285 16.068C75.3205 15.7053 75.4592 15.4707 75.5445 15.364C75.6512 15.236 75.8645 15.172 76.1845 15.172C76.5045 15.172 76.7498 15.2893 76.9205 15.524C77.0912 15.7587 77.2512 16.132 77.4005 16.644C77.5498 17.1347 77.6992 17.6893 77.8485 18.308C77.9978 18.9267 78.1258 19.3427 78.2325 19.556C78.3605 19.7693 78.5205 19.876 78.7125 19.876ZM112.983 15.14L112.887 15.716C112.737 16.3133 112.663 16.7507 112.663 17.028C112.663 17.284 112.705 17.5827 112.791 17.924C112.876 18.244 113.025 18.6173 113.239 19.044C113.473 19.4707 113.847 19.8333 114.359 20.132C114.871 20.4307 115.564 20.58 116.439 20.58C117.335 20.58 118.156 20.324 118.903 19.812C119.649 19.2787 120.023 18.5747 120.023 17.7C120.023 16.804 119.777 16.1 119.287 15.588C118.817 15.076 118.103 14.82 117.143 14.82C116.503 14.82 116.183 14.5 116.183 13.86C116.183 13.6253 116.279 13.412 116.471 13.22C116.663 13.0067 116.887 12.9 117.143 12.9C118.615 12.9 119.777 13.348 120.631 14.244C121.505 15.1187 121.943 16.2707 121.943 17.7C121.943 19.108 121.377 20.26 120.247 21.156C119.116 22.052 117.761 22.5 116.183 22.5C114.625 22.5 113.399 22.052 112.503 21.156C111.628 20.2387 111.084 19.236 110.871 18.148C108.033 21.6893 105.708 25.7427 103.895 30.308C103.319 31.7587 102.401 32.484 101.143 32.484C100.417 32.484 99.8625 32.2067 99.4785 31.652C98.6678 30.5 98.2625 27.4493 98.2625 22.5C98.2625 20.0253 98.3798 17.7107 98.6145 15.556C98.1452 15.7053 97.7078 15.78 97.3025 15.78C96.6625 15.78 96.3425 15.46 96.3425 14.82C96.3425 14.18 96.6625 13.86 97.3025 13.86C97.6652 13.86 98.1878 13.732 98.8705 13.476C99.2332 11.0227 99.7345 8.88933 100.375 7.076C101.036 5.284 101.719 3.94 102.423 3.044C103.767 1.33733 104.94 0.483999 105.943 0.483999C107.863 0.483999 108.823 1.99867 108.823 5.028C108.823 6.15867 108.567 7.25733 108.055 8.324C107.564 9.36933 106.892 10.2973 106.039 11.108C104.503 12.58 102.7 13.8067 100.631 14.788C100.332 17.0707 100.183 19.332 100.183 21.572C100.183 23.812 100.257 25.8707 100.407 27.748C100.556 29.6253 100.801 30.564 101.143 30.564C101.527 30.564 101.847 30.244 102.103 29.604C104.108 24.5907 107.127 19.6413 111.159 14.756C111.457 14.372 111.745 14.18 112.023 14.18C112.663 14.18 112.983 14.5 112.983 15.14ZM100.983 12.452C104.929 10.212 106.903 7.73733 106.903 5.028C106.903 3.27867 106.583 2.404 105.943 2.404C105.601 2.404 105.164 2.73467 104.631 3.396C104.097 4.036 103.639 4.708 103.255 5.412C102.316 7.11867 101.559 9.46533 100.983 12.452ZM125.363 18.212C125.405 18.148 125.501 17.6893 125.651 16.836C125.821 15.9827 126.013 15.1507 126.227 14.34C126.461 13.508 126.867 12.74 127.443 12.036C128.04 11.332 128.755 10.98 129.587 10.98C131.208 10.98 132.573 11.4067 133.683 12.26C134.813 13.092 135.379 14.1693 135.379 15.492C135.379 16.8147 135.56 17.9987 135.923 19.044C136.285 20.068 136.765 20.58 137.363 20.58C137.768 20.58 138.269 20.452 138.867 20.196C139.827 19.812 140.392 19.62 140.563 19.62C141.203 19.62 141.523 19.94 141.523 20.58C141.523 21.0493 141.203 21.3907 140.563 21.604C139.368 22.2013 138.291 22.5 137.331 22.5C136.392 22.5 135.613 22.1053 134.995 21.316C134.376 20.5053 133.96 19.6093 133.747 18.628C133.555 17.6467 133.459 16.5907 133.459 15.46C133.459 14.7133 133.096 14.1053 132.371 13.636C131.645 13.1453 130.728 12.9 129.619 12.9C128.723 12.9 128.019 14.3293 127.507 17.188C127.293 18.2973 127.144 18.9373 127.059 19.108C126.696 19.8547 125.704 20.58 124.083 21.284C123.699 21.4547 123.389 21.54 123.155 21.54C122.515 21.54 122.195 21.22 122.195 20.58C122.195 20.1747 122.515 19.844 123.155 19.588C124.413 19.076 125.149 18.6173 125.363 18.212ZM164.195 22.5H162.275C160.483 22.5 159.182 22.084 158.371 21.252C157.56 20.3987 157.155 19.3213 157.155 18.02C157.155 16.1213 157.774 14.4787 159.011 13.092C160.248 11.684 161.656 10.98 163.235 10.98C164.131 10.98 164.942 11.1613 165.667 11.524C166.392 11.8867 166.755 12.2387 166.755 12.58C166.755 13.22 166.435 13.54 165.795 13.54C165.518 13.54 165.166 13.4333 164.739 13.22C164.312 13.0067 163.811 12.9 163.235 12.9C162.083 12.9 161.102 13.444 160.291 14.532C159.48 15.5987 159.075 16.6653 159.075 17.732C159.075 18.7987 159.32 19.5453 159.811 19.972C160.323 20.3773 161.144 20.58 162.275 20.58H164.195C165.667 20.58 167.139 20.3347 168.611 19.844C169.059 19.6947 169.315 19.62 169.379 19.62C170.019 19.62 170.339 19.94 170.339 20.58C170.339 21.0493 170.019 21.3907 169.379 21.604C167.587 22.2013 165.859 22.5 164.195 22.5ZM173.153 13.86C173.153 13.5827 173.238 13.3587 173.409 13.188C173.579 12.996 173.814 12.9 174.113 12.9C174.753 12.9 175.073 13.22 175.073 13.86C175.073 15.5027 175.457 17.0387 176.225 18.468C177.014 19.876 177.91 20.58 178.913 20.58C179.361 20.58 180.342 18.0413 181.857 12.964C182.049 12.324 182.454 12.004 183.073 12.004C183.393 12.004 183.627 12.068 183.777 12.196C183.926 12.324 184.011 12.4947 184.033 12.708C184.075 12.9213 184.139 13.3267 184.225 13.924C184.31 14.5213 184.417 15.1187 184.545 15.716C184.651 16.3133 184.79 16.9533 184.961 17.636C185.345 19.172 185.782 19.94 186.273 19.94C186.678 19.94 187.041 19.8867 187.361 19.78C187.681 19.6733 187.873 19.62 187.937 19.62C188.577 19.62 188.897 19.94 188.897 20.58C188.897 21.0493 188.609 21.38 188.033 21.572C187.457 21.764 186.923 21.86 186.433 21.86C185.942 21.86 185.537 21.7853 185.217 21.636C184.897 21.4653 184.63 21.2627 184.417 21.028C184.246 20.8147 184.054 20.4947 183.841 20.068C183.606 19.5987 183.382 19.0547 183.169 18.436C182.977 17.8173 182.87 17.4547 182.849 17.348C182.827 17.2413 182.806 17.1347 182.785 17.028C182.785 16.9 182.774 16.804 182.753 16.74C182.71 16.8253 182.667 16.9533 182.625 17.124L182.497 17.508C182.454 17.5933 182.411 17.6893 182.369 17.796C182.347 17.8813 182.241 18.212 182.049 18.788C181.857 19.3427 181.686 19.7907 181.537 20.132C181.387 20.4307 181.185 20.7933 180.929 21.22C180.417 22.0733 179.713 22.5 178.817 22.5C177.942 22.5 177.025 22.0733 176.065 21.22C175.105 20.3667 174.358 19.2253 173.825 17.796C173.419 18.4573 172.929 19.0653 172.353 19.62C171.393 20.5587 170.689 21.1133 170.241 21.284C169.814 21.4547 169.483 21.54 169.248 21.54C168.608 21.54 168.288 21.22 168.288 20.58C168.288 20.1747 168.608 19.844 169.248 19.588C169.889 19.3107 170.699 18.628 171.681 17.54C172.662 16.452 173.153 15.2253 173.153 13.86ZM219.235 20.196C219.768 20.196 220.334 20.1 220.931 19.908C221.528 19.716 221.838 19.62 221.859 19.62C222.499 19.62 222.819 19.94 222.819 20.58C222.819 21.0493 222.499 21.3907 221.859 21.604C220.835 21.9453 219.96 22.116 219.235 22.116C218.254 22.116 217.486 21.6573 216.931 20.74C216.376 19.8013 216.099 19.0333 216.099 18.436C215.864 18.8413 215.534 19.268 215.107 19.716C214.68 20.164 213.987 20.6333 213.027 21.124C212.067 21.6147 211.054 21.86 209.987 21.86C208.942 21.86 208.088 21.5293 207.427 20.868C206.766 20.2067 206.435 19.364 206.435 18.34C206.435 16.2067 207.043 14.4467 208.259 13.06C209.475 11.6733 210.915 10.98 212.579 10.98C213.56 10.98 214.446 11.1613 215.235 11.524C216.024 11.8867 216.419 12.2387 216.419 12.58C216.419 13.22 216.099 13.54 215.459 13.54C215.331 13.54 214.968 13.4333 214.371 13.22C213.774 13.0067 213.176 12.9 212.579 12.9C211.512 12.9 210.542 13.4013 209.667 14.404C208.792 15.3853 208.355 16.6973 208.355 18.34C208.355 18.8093 208.504 19.1933 208.803 19.492C209.102 19.7907 209.528 19.94 210.083 19.94C210.659 19.94 211.224 19.844 211.779 19.652C212.355 19.4387 212.856 19.14 213.283 18.756C213.859 18.2227 214.275 17.764 214.531 17.38C214.787 16.996 215 16.676 215.171 16.42C215.342 16.164 215.47 15.972 215.555 15.844C215.662 15.716 215.758 15.588 215.843 15.46C215.992 15.2467 216.163 15.14 216.355 15.14C216.888 15.14 217.251 15.2893 217.443 15.588C217.656 15.8653 217.806 16.3987 217.891 17.188C218.083 19.1933 218.531 20.196 219.235 20.196ZM202.435 16.26C201.688 18.0733 200.75 19.5667 199.619 20.74C198.51 21.9133 197.422 22.5 196.355 22.5C195.31 22.5 194.371 22.2013 193.539 21.604C192.728 21.0067 192.078 20.2067 191.587 19.204C190.67 17.348 190.083 15.3533 189.827 13.22C189.806 13.0707 189.795 12.8573 189.795 12.58C189.795 11.94 190.115 11.62 190.755 11.62C191.075 11.62 191.299 11.6947 191.427 11.844C191.576 11.972 191.672 12.2067 191.715 12.548C192.398 17.9027 193.955 20.58 196.387 20.58C196.963 20.58 197.656 20.1 198.467 19.14C199.299 18.18 200.035 16.932 200.675 15.396C201.315 13.86 201.635 12.388 201.635 10.98C201.635 10.34 201.955 10.02 202.595 10.02C203.235 10.02 203.555 10.34 203.555 10.98C203.555 12.6867 203.182 14.4467 202.435 16.26Z" fill="white"/>
</svg>
