<svg width="24" height="24" viewBox="0 0 24 24" fill="none" xmlns="http://www.w3.org/2000/svg">
<path fill-rule="evenodd" clip-rule="evenodd" d="M23.854 23.9164C23.9346 23.8488 23.9982 19.5565 23.9982 14.3765V4.95938L18.9226 4.83131C13.1304 4.68544 13.4378 4.6054 13.5205 6.2437L13.5819 7.45331L17.1904 7.54047L20.801 7.62763L20.8562 13.6668C20.8858 16.9878 20.8392 19.7628 20.7523 19.834C20.6653 19.9033 16.6986 15.4687 11.9346 9.97925L3.27594 0H1.79184C0.553682 0 0.288664 0.0515861 0.203858 0.307738C0.114813 0.574563 -0.0611591 18.2882 0.0215264 18.8592C0.0872507 19.3074 3.01729 19.3999 3.16146 18.9392C3.2293 18.7222 3.16146 18.9392 3.16358 13.8998C3.1657 8.86036 3.23778 4.73525 3.32683 4.73525C3.41587 4.73525 4.96782 6.43937 6.78054 8.52238C8.59326 10.6054 12.3565 14.9262 15.1445 18.1245L20.2116 23.9395L21.9607 23.9893C22.9233 24.0178 23.7756 23.984 23.854 23.9164ZM23.9134 2.39075C23.9728 2.25912 23.994 1.68633 23.9579 1.11889L23.8943 0.0871628H16.9848H10.0752L10.0159 1.35903L9.95439 2.63089H16.8788C22.5332 2.63089 23.8244 2.5882 23.9113 2.39253L23.9134 2.39075Z" fill="white"/>
</svg>
