<svg width="1198" height="183" viewBox="0 0 1198 183" fill="none" xmlns="http://www.w3.org/2000/svg">
<path fill-rule="evenodd" clip-rule="evenodd" d="M930.571 24.4657C930.195 24.8464 929.888 48.9804 929.888 78.0977V131.038L953.828 131.756C981.143 132.579 979.701 133.029 979.307 123.818L979.016 117.014L961.992 116.521L944.965 116.029L944.71 82.0775C944.569 63.4033 944.787 47.8038 945.196 47.4125C945.604 47.0185 964.319 71.9484 986.786 102.809L1027.63 158.917H1034.63C1040.47 158.917 1041.72 158.629 1042.12 157.192C1042.54 155.683 1043.28 29.276 1042.89 26.063C1042.58 23.5394 1029.44 24.4551 1028.76 27.0479C1028.44 28.2671 1028.17 52.449 1028.16 80.781C1028.15 109.116 1027.81 132.297 1027.39 132.297C1026.98 132.297 1019.65 122.716 1011.1 111.008C1002.55 99.3008 984.8 75.0098 971.653 57.0277L947.752 24.338L939.502 24.0558C934.965 23.8987 930.946 24.0851 930.571 24.4657ZM163.981 25.4214C162.807 26.6114 163.177 37.1583 164.435 38.4361C165.281 39.2933 172.224 39.618 189.557 39.618C217.088 39.618 220.009 40.1877 226.802 46.8774C238.381 58.2842 238.727 74.5572 227.627 85.8069C220.07 93.4629 220.95 93.2952 186.129 93.8463L155 94.3387V126.382V158.424H161.809H168.62L169.106 133.777L169.592 109.126L195.373 108.631L221.154 108.136L226.471 105.304C257.096 88.9907 258.409 43.9385 228.696 29.0471L221.262 25.3229L192.977 25.0115C177.422 24.8411 164.372 25.0248 163.981 25.4214ZM268.788 26.0523C268.53 26.7365 268.433 56.7988 268.572 92.8587L268.824 158.424L314.485 158.68C365.186 158.965 361.693 159.471 361.719 151.849C361.745 143.448 365.223 144.129 322.229 144.129H283.905V130.819V117.509H313.868C347.734 117.509 346.166 117.89 346.166 109.621C346.166 101.351 347.734 101.734 313.868 101.734H283.905V89.9012V78.0711H314.53H345.157L345.722 75.7871C346.035 74.5306 346.15 71.3149 345.985 68.6395L345.68 63.7733L314.792 63.5151L283.905 63.2542V51.4481V39.642L322.575 39.3838L361.246 39.1256V32.2256V25.3229L315.252 25.0674C278.974 24.8651 269.158 25.0727 268.788 26.0523ZM380.453 91.6261L380.702 158.424H421.078H461.451L461.737 151.277L462.024 144.129H428.417H394.811V86.0385C394.811 18.7743 395.591 24.8305 386.917 24.8305H380.203L380.453 91.6261ZM482.775 26.1641C482.494 26.9068 482.397 30.1279 482.559 33.3197L482.854 39.1256L523.471 39.3838C545.811 39.5249 564.088 39.8842 564.088 40.1797C564.088 40.6429 492.862 129.576 483.655 140.608C480.164 144.795 478.927 155.036 481.59 157.735C482.961 159.125 586.071 159.452 588.217 158.073C589.097 157.509 589.394 155.329 589.192 150.939L588.898 144.622L545.362 144.364C521.417 144.223 501.827 143.853 501.827 143.538C501.827 143.227 520.453 119.242 543.216 90.2392L584.608 37.5097L584.319 31.4163L584.033 25.3229L533.66 25.0674C491.716 24.8544 483.2 25.0381 482.775 26.1641ZM661.096 26.8003C658.304 30.8413 607.645 155.917 608.202 157.392C608.979 159.444 620.713 159.572 622.373 157.546C622.99 156.793 633.064 132.297 644.761 103.11C656.457 73.9236 666.413 49.9121 666.883 49.755C667.353 49.5953 671.306 58.5717 675.669 69.7017L683.597 89.9358L669.972 123.006C654.561 160.408 654.761 159.117 664.432 158.715L671.406 158.424L676.4 146.099C679.147 139.322 688.997 114.81 698.294 91.6261C707.587 68.4452 715.507 49.4782 715.893 49.4782C716.526 49.4782 724.243 68.4106 751.052 135.701C755.795 147.606 760.214 157.692 760.87 158.118C762.961 159.463 774.235 159.061 774.779 157.623C775.246 156.388 723.455 28.6238 721.448 26.063C720.912 25.3788 718.375 24.8305 715.759 24.8305C709.846 24.8305 710.421 23.928 700.18 49.2439C695.732 60.2328 691.693 69.0867 691.199 68.919C690.705 68.754 686.715 59.7643 682.331 48.9405C671.79 22.9324 672.977 24.8305 667.235 24.8305C663.563 24.8305 662.144 25.2856 661.096 26.8003ZM849.292 26.5554C844.829 35.215 793.641 155.499 793.883 156.763C794.351 159.22 910.14 159.846 911.067 157.394C911.388 156.55 910.108 152.219 908.225 147.774C900.016 128.389 857.994 29.9974 856.872 27.5404C855.407 24.3246 850.752 23.7204 849.292 26.5554ZM858.632 66.4859C861.382 73.1277 869.565 92.7229 876.817 110.026C884.067 127.332 889.998 141.861 889.998 142.317C889.998 142.772 873.098 143.142 852.438 143.142C822.78 143.142 814.984 142.884 815.37 141.909C815.638 141.233 823.618 122.266 833.1 99.7613C842.583 77.2565 850.718 57.8476 851.175 56.6258C852.593 52.8563 853.471 54.0143 858.632 66.4859ZM542.89 119.215C541.543 121.957 541.438 130.279 542.728 131.855C544.432 133.936 586.639 133.968 588.341 131.889C589.026 131.053 589.365 128.008 589.189 124.249L588.898 118.002L566.321 117.735C545.551 117.493 543.678 117.61 542.89 119.215ZM930.29 145.471C930.011 146.211 929.914 149.427 930.077 152.619L930.374 158.424H962.964H995.556L995.84 151.277L996.126 144.129H963.463C936.796 144.129 930.705 144.374 930.29 145.471Z" fill="white"/>
</svg>
