<svg width="178" height="28" viewBox="0 0 178 28" fill="none" xmlns="http://www.w3.org/2000/svg">
<path d="M0.28 25.828L3.224 25.348V2.052L0.28 1.604V0.9H10.328C13.4853 0.9 15.832 1.572 17.368 2.916C18.904 4.26 19.672 6.20133 19.672 8.74C19.672 11.2787 18.904 13.22 17.368 14.564C15.832 15.908 13.4853 16.58 10.328 16.58H6.744V25.348L9.688 25.828V26.5H0.28V25.828ZM9.88 15.812C13.8267 15.812 15.8 13.668 15.8 9.38V8.1C15.8 3.83333 13.8267 1.7 9.88 1.7H6.744V15.812H9.88ZM34.667 27.14C32.3417 27.14 30.2617 26.5747 28.427 25.444C26.5923 24.3133 25.163 22.7347 24.139 20.708C23.115 18.66 22.603 16.324 22.603 13.7C22.603 11.076 23.115 8.75067 24.139 6.724C25.163 4.676 26.5923 3.08667 28.427 1.956C30.2617 0.825332 32.3417 0.259998 34.667 0.259998C36.9923 0.259998 39.0723 0.825332 40.907 1.956C42.7417 3.08667 44.171 4.676 45.195 6.724C46.219 8.75067 46.731 11.076 46.731 13.7C46.731 16.324 46.219 18.66 45.195 20.708C44.171 22.7347 42.7417 24.3133 40.907 25.444C39.0723 26.5747 36.9923 27.14 34.667 27.14ZM34.667 26.404C36.203 26.404 37.579 25.9987 38.795 25.188C40.0323 24.3773 41.003 23.204 41.707 21.668C42.411 20.1107 42.763 18.276 42.763 16.164V11.236C42.763 9.124 42.411 7.3 41.707 5.764C41.003 4.20667 40.0323 3.02267 38.795 2.212C37.579 1.40133 36.203 0.995998 34.667 0.995998C33.1097 0.995998 31.723 1.40133 30.507 2.212C29.291 3.02267 28.331 4.20667 27.627 5.764C26.923 7.3 26.571 9.124 26.571 11.236V16.164C26.571 18.276 26.923 20.1107 27.627 21.668C28.331 23.204 29.291 24.3773 30.507 25.188C31.723 25.9987 33.1097 26.404 34.667 26.404ZM49.7488 26.5V25.828L52.6927 25.348V2.052L49.7488 1.604V0.9H59.1568V1.604L56.2128 2.052V25.732H65.7808L68.4048 18.692H69.2688V26.5H49.7488ZM69.1665 26.5V25.828L72.3025 24.548L81.5505 0.259998H82.0625L90.7985 25.348L93.7425 25.828V26.5H84.3345V25.828L86.9585 25.412L84.2385 17.828H75.7265L73.1345 24.548L76.0145 25.828V26.5H69.1665ZM75.9825 17.156H84.0145L80.1745 5.892L75.9825 17.156ZM112.935 26.82C111.74 26.82 110.844 26.532 110.247 25.956C109.649 25.38 109.244 24.3987 109.031 23.012L108.423 18.724C108.209 17.2733 107.708 16.1427 106.919 15.332C106.151 14.5 104.945 14.084 103.303 14.084H100.807V25.348L103.751 25.828V26.5H94.3425V25.828L97.2865 25.348V2.052L94.3425 1.604V0.9H103.303C106.78 0.9 109.297 1.444 110.855 2.532C112.412 3.62 113.191 5.27333 113.191 7.492C113.191 11.1613 110.972 13.284 106.535 13.86V14.052C108.177 14.2867 109.489 14.8733 110.471 15.812C111.473 16.7507 112.103 17.9987 112.359 19.556L112.775 22.308C112.945 23.5027 113.137 24.3133 113.351 24.74C113.585 25.1667 113.937 25.38 114.407 25.38C114.727 25.38 115.068 25.284 115.431 25.092C115.793 24.8787 116.135 24.612 116.455 24.292L116.999 24.868C116.38 25.572 115.74 26.0733 115.079 26.372C114.417 26.6707 113.703 26.82 112.935 26.82ZM104.391 13.316C105.948 13.316 107.153 12.8467 108.007 11.908C108.881 10.948 109.319 9.54 109.319 7.684V7.012C109.319 3.47067 107.313 1.7 103.303 1.7H100.807V13.316H104.391ZM124.089 25.604C122.19 24.4947 120.707 22.9053 119.641 20.836C118.574 18.7667 118.041 16.388 118.041 13.7C118.041 11.076 118.553 8.75067 119.577 6.724C120.601 4.676 122.03 3.08667 123.865 1.956C125.699 0.825332 127.779 0.259998 130.105 0.259998C131.875 0.259998 133.55 0.611998 135.128 1.316L135.641 0.195999H136.953L136.185 1.892C138.062 3.00133 139.523 4.58 140.569 6.628C141.635 8.676 142.169 11.0333 142.169 13.7C142.169 16.324 141.657 18.66 140.633 20.708C139.609 22.7347 138.179 24.3133 136.345 25.444C134.51 26.5747 132.43 27.14 130.105 27.14C128.334 27.14 126.691 26.8093 125.177 26.148L124.729 27.204H123.385L124.089 25.604ZM134.521 2.404C133.219 1.46533 131.747 0.995998 130.105 0.995998C128.547 0.995998 127.161 1.40133 125.945 2.212C124.729 3.02267 123.769 4.20667 123.065 5.764C122.361 7.3 122.009 9.124 122.009 11.236V16.164C122.009 17.9347 122.254 19.5133 122.745 20.9C123.235 22.2867 123.929 23.4173 124.825 24.292L134.521 2.404ZM130.105 26.404C131.641 26.404 133.017 25.9987 134.233 25.188C135.47 24.3773 136.441 23.204 137.145 21.668C137.849 20.1107 138.201 18.276 138.201 16.164V11.236C138.201 9.508 137.955 7.972 137.465 6.628C136.995 5.26266 136.323 4.132 135.449 3.236L125.753 25.092C127.011 25.9667 128.462 26.404 130.105 26.404ZM145.186 26.5V25.828L148.13 25.348V2.052L145.186 1.604V0.9H154.594V1.604L151.65 2.052V25.348L154.594 25.828V26.5H145.186ZM162.371 26.5V25.828L165.315 25.348V1.7H160.035L157.603 8.036H156.675V0.9H177.507V8.036H176.547L174.147 1.7H168.835V25.348L171.779 25.828V26.5H162.371Z" fill="white"/>
</svg>
