<svg width="229" height="231" viewBox="0 0 229 231" fill="none" xmlns="http://www.w3.org/2000/svg">
<path fill-rule="evenodd" clip-rule="evenodd" d="M116.906 0.681641C55.1253 0.681641 5.04325 50.7616 5.04325 112.543C5.04325 133.675 10.9082 153.439 21.0942 170.3L0.90625 230.314L62.8382 210.484C78.8632 219.347 97.2932 224.398 116.906 224.398C178.683 224.398 228.765 174.32 228.765 112.543C228.765 50.7616 178.683 0.681641 116.906 0.681641ZM116.906 206.584C97.8022 206.584 80.0153 200.854 65.1643 191.031L29.0233 202.605L40.7692 167.679C29.5112 152.175 22.8592 133.124 22.8592 112.541C22.8592 60.6836 65.0482 18.4956 116.906 18.4956C168.761 18.4956 210.951 60.6836 210.951 112.541C210.951 164.396 168.761 206.584 116.906 206.584Z" fill="black"/>
<path fill-rule="evenodd" clip-rule="evenodd" d="M90.6709 66.2732C88.8589 61.9062 87.4709 61.7582 84.6719 61.6252C83.7119 61.5792 82.6709 61.5352 81.5319 61.5352C77.9259 61.5352 74.1869 62.5972 71.9339 64.9022C69.1919 67.7072 62.3359 74.2772 62.3359 87.7672C62.3359 101.259 72.1619 114.296 73.5309 116.126C74.9039 117.954 92.6949 146.045 120.375 157.514C141.98 166.463 148.395 165.666 153.324 164.588C160.496 163.022 169.502 157.74 171.787 151.34C174.072 144.936 174.072 139.447 173.387 138.307C172.701 137.162 170.873 136.479 168.131 135.104C165.389 133.733 151.906 127.1 149.393 126.187C146.879 125.273 144.555 125.552 142.622 128.226C139.954 131.919 137.388 135.714 135.263 137.964C133.595 139.73 130.911 139.976 128.603 138.995C125.568 137.702 117.025 134.725 106.55 125.386C98.3999 118.12 92.8959 109.144 91.2959 106.398C89.6959 103.656 91.1549 102.019 92.3879 100.527C93.7939 98.8242 95.0909 97.6012 96.4619 96.0022C97.8329 94.4002 98.5989 93.5472 99.5129 91.7152C100.427 89.8872 99.8119 88.0002 99.1259 86.6272C98.4379 85.2532 92.9489 71.7652 90.6709 66.2732Z" fill="black"/>
</svg>
